<?xml version="1.0" encoding="utf-8"?>
<!-- Generator: Adobe Illustrator 23.0.2, SVG Export Plug-In . SVG Version: 6.00 Build 0)  -->
<svg version="1.1" xmlns="http://www.w3.org/2000/svg" xmlns:xlink="http://www.w3.org/1999/xlink" x="0px" y="0px"
	 viewBox="0 0 1400 1000" style="enable-background:new 0 0 1400 1000;" xml:space="preserve">
<style type="text/css">
	.st0{fill:#FFF6DA;}
	.st1{fill:#FFD18F;}
	.st2{fill:#EFB96A;}
	.st3{fill:#F45551;}
	.st4{fill:#22C6AE;}
	.st5{fill:#DB1D1D;}
	.st6{fill:#0CA58B;}
	.st7{opacity:0.34;fill:#FFFFFF;}
	.st8{fill:#994B39;}
	.st9{fill:#FFE5C2;}
	.st10{fill:#7F3225;}
	.st11{fill:#08B5B0;}
	.st12{fill:#13AA91;}
	.st13{fill:#D73737;}
	.st14{opacity:0.4;fill:#FFD18F;}
	.st15{fill:#FF3B36;}
	.st16{font-family:'Oswald-Regular';}
	.st17{font-size:59.8603px;}
	.st18{letter-spacing:11;}
</style>
<g id="BACKGROUND">
	<rect class="st0" width="1400" height="1000"/>
</g>
<g id="OBJECT">
	<g>
		<g>
			<g>
				<g>
					<g>
						<path class="st1" d="M996.34,725.18L996.34,725.18c-13.92,0-25.2-11.28-25.2-25.2v-73.16h50.4v73.16
							C1021.54,713.9,1010.26,725.18,996.34,725.18z"/>
						<path class="st2" d="M1007.72,626.82v73.16c0,11.52-7.73,21.23-18.29,24.23c2.2,0.63,4.51,0.97,6.91,0.97h0
							c13.92,0,25.2-11.28,25.2-25.2v-73.16H1007.72z"/>
					</g>
					<g>
						<path class="st3" d="M917.63,603.73c0,12.81,10.39,23.2,23.2,23.2h111.04c12.81,0,23.2-10.39,23.2-23.2V523.3H917.63V603.73z"
							/>
						<path class="st4" d="M1075.06,326c0-12.81-10.39-23.2-23.2-23.2H940.82c-12.81,0-23.2,10.39-23.2,23.2v80.43h157.43V326z"/>
						<rect x="917.63" y="406.43" class="st1" width="157.43" height="116.87"/>
					</g>
					<g>
						<path class="st5" d="M1075.06,523.3v80.43c0,12.82-10.39,23.2-23.2,23.2h-42.33c12.81,0,23.2-10.38,23.2-23.2V523.3H1075.06z"
							/>
						<path class="st6" d="M1075.06,326v80.43h-42.33V326c0-12.81-10.39-23.2-23.2-23.2h42.33
							C1064.68,302.8,1075.06,313.19,1075.06,326z"/>
						<rect x="1032.73" y="406.43" class="st2" width="42.33" height="116.87"/>
					</g>
				</g>
				<path class="st7" d="M946.31,328.56h-1.21c-6.58,0-11.96,5.38-11.96,11.96v259.19c0,6.58,5.38,11.96,11.96,11.96h1.21
					c6.58,0,11.96-5.38,11.96-11.96V340.52C958.27,333.94,952.89,328.56,946.31,328.56z"/>
			</g>
			<g>
				<path class="st3" d="M1205.58,307.57c-1.12,0.94-2.19,1.88-3.25,2.83C1203.38,309.44,1204.46,308.5,1205.58,307.57z"/>
				<path class="st3" d="M1163.53,411.31c-1.35-10.85-1.94-29.79,5.2-50.91c59.59,5.16,89.67-36.7,89.67-36.7s0.21-0.14,0.59-0.39
					c0.75,0.48,1.55,0.93,2.45,1.35c12.5,5.8,21.59,8.66,29.45,12.31c-0.19-0.03-0.29-0.04-0.29-0.04
					C1342.21,382.42,1199.09,386.71,1163.53,411.31z"/>
				<path class="st8" d="M1178.6,446.69c-7.96,0.23-13.29,2.62-16.8,6.03c-9.32-6.46-23.64-21.09-0.13-40.03
					c32.07-25.84,181.48-29.44,128.93-75.76c0,0,34.58,4.14,38.14,31.76c0.33,2.51,0.59,5.1,0.79,7.75
					c-0.25-0.66-0.39-1.01-0.39-1.01C1338.05,432.44,1208.89,445.79,1178.6,446.69z"/>
				<path class="st3" d="M1341.63,467.91c10.74-34.09-12.49-92.48-12.49-92.48c8.91,57.01-120.25,70.37-150.54,71.26
					c-17.92,0.53-22.43,11.97-23.12,21.22H1341.63z"/>
				<g>
					<path class="st1" d="M1336.64,503.93l-72.95,198.11c-5.3,14.39-25.65,14.39-30.95,0l-72.95-198.11
						c-6.27-17.03,6.33-35.09,24.47-35.09h127.9C1330.31,468.84,1342.91,486.91,1336.64,503.93z"/>
					<path class="st2" d="M1162.76,512.01h170.91l2.97-8.08c6.27-17.03-6.33-35.09-24.47-35.09h-127.91
						c-18.14,0-30.74,18.07-24.47,35.09L1162.76,512.01z"/>
					<path class="st2" d="M1312.16,468.84H1277c18.14,0,30.74,18.07,24.47,35.09l-70.84,192.4l2.11,5.72
						c5.3,14.39,25.65,14.39,30.95,0l72.95-198.11C1342.91,486.91,1330.31,468.84,1312.16,468.84z"/>
					<path class="st2" d="M1336.64,503.93c0.6-1.64,1.03-3.29,1.29-4.93l-27.07-27.07h-12.98l3.66,3.66l-21.73,21.73l-21.73-21.73
						l3.66-3.66h-20.3l3.66,3.66l-21.73,21.73l-21.73-21.73l3.66-3.66h-12.98l-30.63,30.63c0.27,1.49,0.66,2.98,1.21,4.46l1.97,5.35
						l2.06-2.06l21.73,21.73l-12.1,12.1l3.49,9.49l15.1-15.1l21.73,21.73l-21.73,21.73l-7.36-7.36l7.57,20.55l21.53,21.53
						l-9.94,9.94l3.49,9.49l12.94-12.94l21.73,21.73l-21.73,21.73l-2.69-2.69l7.57,20.55l16.85,16.85l-7.41,7.41
						c0.18,0.26,0.36,0.51,0.55,0.76c2.49,1.88,5.44,2.95,8.46,3.21l4.9-4.9l3.51,3.51c2.75-1.23,5.19-3.24,6.96-6.03l-3.97-3.97
						l9.27-9.27l10.2-27.7l-19.47-19.47l21.73-21.73l9.44,9.44l3.49-9.49l-6.44-6.44l13.95-13.95l7.68-20.87l-21.63-21.63
						l21.73-21.73l11.6,11.6l3.49-9.49l-8.6-8.6l18.62-18.62L1336.64,503.93z M1251.58,482.09l21.73,21.73l-21.73,21.73
						l-21.73-21.73L1251.58,482.09z M1273.32,560.26l-21.73,21.73l-21.73-21.73l21.73-21.73L1273.32,560.26z M1173.41,503.82
						l21.73-21.73l21.73,21.73l-21.73,21.73L1173.41,503.82z M1201.63,532.04l21.73-21.73l21.73,21.73l-21.73,21.73L1201.63,532.04z
						 M1223.36,610.22l-21.73-21.73l21.73-21.73l21.73,21.73L1223.36,610.22z M1273.32,673.15l-21.73,21.73l-21.73-21.73
						l21.73-21.73L1273.32,673.15z M1251.58,638.44l-21.73-21.73l21.73-21.73l21.73,21.73L1251.58,638.44z M1301.54,588.49
						l-21.73,21.73l-21.73-21.73l21.73-21.73L1301.54,588.49z M1279.81,553.77l-21.73-21.73l21.73-21.73l21.73,21.73L1279.81,553.77
						z M1308.03,525.55l-21.73-21.73l21.73-21.73l21.73,21.73L1308.03,525.55z"/>
					<g>
						<path class="st9" d="M1159.79,503.93l1.97,5.35l2.06-2.06l21.73,21.73l-12.1,12.1l3.49,9.49l15.1-15.1l21.73,21.73
							l-21.73,21.73l-7.36-7.36l7.57,20.55l21.53,21.53l-9.94,9.94l3.49,9.49l12.94-12.94l21.73,21.73l-21.73,21.73l-2.69-2.69
							l7.57,20.55l16.85,16.85l-7.41,7.41c1.84,2.74,4.34,4.68,7.14,5.85l6.77-6.77l6.61,6.61c2.75-1.23,5.19-3.24,6.96-6.03
							l-7.07-7.07l15.98-15.98l7.57-20.55l-1.82,1.82l-21.73-21.73l21.73-21.73l12.54,12.54l3.49-9.49l-9.54-9.54l20.66-20.66
							l7.57-20.55l-6.49,6.49l-21.73-21.73l21.73-21.73l14.69,14.69l3.49-9.49l-11.7-11.7l21.73-21.73l1.66,1.66l1.82-4.94
							c0.6-1.64,1.03-3.29,1.29-4.93l-30.17-30.17h-12.98l3.66,3.66l-21.73,21.73l-21.73-21.73l3.66-3.66h-20.3l3.66,3.66
							l-21.73,21.73l-21.73-21.73l3.66-3.66h-12.98l-30.63,30.63C1158.85,500.96,1159.24,502.45,1159.79,503.93z M1220.26,607.12
							l-21.73-21.73l21.73-21.73l21.73,21.73L1220.26,607.12z M1226.76,557.17l21.73-21.73l21.73,21.73l-21.73,21.73L1226.76,557.17
							z M1270.22,670.06l-21.73,21.73l-21.73-21.73l21.73-21.73L1270.22,670.06z M1248.49,635.34l-21.73-21.73l21.73-21.73
							l21.73,21.73L1248.49,635.34z M1298.44,585.39l-21.73,21.73l-21.73-21.73l21.73-21.73L1298.44,585.39z M1304.93,478.99
							l21.73,21.73l-21.73,21.73l-21.73-21.73L1304.93,478.99z M1298.44,528.94l-21.73,21.73l-21.73-21.73l21.73-21.73
							L1298.44,528.94z M1248.49,478.99l21.73,21.73l-21.73,21.73l-21.73-21.73L1248.49,478.99z M1241.99,528.94l-21.73,21.73
							l-21.73-21.73l21.73-21.73L1241.99,528.94z M1192.04,478.99l21.73,21.73l-21.73,21.73l-21.73-21.73L1192.04,478.99z"/>
					</g>
				</g>
				<path class="st1" d="M1334.36,467.36h-173.73c-9.34,0-16.97,7.64-16.97,16.97v0c0,9.34,7.64,16.97,16.97,16.97h173.73
					c9.34,0,16.97-7.64,16.97-16.97v0C1351.33,475,1343.69,467.36,1334.36,467.36z"/>
				<path class="st9" d="M1293.42,477.01H1160.6c-4.03,0-7.33,3.3-7.33,7.33v0c0,4.03,3.3,7.33,7.33,7.33h132.81
					c4.03,0,7.33-3.3,7.33-7.33v0C1300.74,480.31,1297.45,477.01,1293.42,477.01z"/>
				<path class="st2" d="M1334.36,467.36h-41.45c9.34,0,16.97,7.64,16.97,16.97v0c0,9.34-7.64,16.97-16.97,16.97h41.45
					c9.34,0,16.97-7.64,16.97-16.97v0C1351.33,475,1343.69,467.36,1334.36,467.36z"/>
				<path class="st8" d="M1168.73,360.4c59.6,5.17,89.68-36.7,89.68-36.7s0.21-0.14,0.59-0.4c-20.12-13.04,11.35-50.31,11.35-50.31
					C1205.82,294.5,1179.11,329.73,1168.73,360.4z"/>
				<path class="st8" d="M1252.51,313.4c0.09,0.56,0.2,1.12,0.35,1.65C1252.71,314.51,1252.59,313.96,1252.51,313.4z"/>
				<path class="st8" d="M1253.12,315.93c0.29,0.86,0.66,1.69,1.12,2.48C1253.77,317.62,1253.4,316.8,1253.12,315.93z"/>
				<path class="st8" d="M1259.01,323.31c0,0-0.01,0-0.01,0.01c-2.14-1.39-3.69-3.05-4.75-4.9
					C1255.32,320.27,1256.87,321.92,1259.01,323.31z"/>
				<path class="st5" d="M1298.18,420.44c2.29,15.73,0.6,31.74-6.82,47.47h50.27c10.74-34.09-12.49-92.48-12.49-92.48
					C1332.25,395.29,1318.58,409.85,1298.18,420.44z"/>
				<path class="st10" d="M1258.41,323.71c0,0,0.21-0.14,0.59-0.4c-18.73-12.14,7.25-45.28,10.92-49.8
					c-19.85,8.68-47.95,27.53-20.45,58.24c0.26,0.29,0.52,0.59,0.79,0.89C1255.69,327.49,1258.41,323.71,1258.41,323.71z"/>
				<path class="st5" d="M1290.6,336.93c0,0,0.1,0.01,0.29,0.04c-7.85-3.65-16.95-6.51-29.45-12.31c-0.9-0.42-1.7-0.87-2.45-1.35
					c-0.38,0.25-0.59,0.39-0.59,0.39s-2.72,3.78-8.14,8.94c11.31,12.72,22.25,26.87,30.91,41.89
					C1301.56,365.74,1310.37,354.36,1290.6,336.93z"/>
				<path class="st10" d="M1281.17,374.53c8.45,14.67,14.72,30.15,17.01,45.91c20.4-10.58,34.07-25.14,30.96-45.01
					c0,0,0.14,0.35,0.39,1.01c-0.2-2.64-0.46-5.23-0.79-7.75c-3.56-27.62-38.14-31.76-38.14-31.76
					C1310.37,354.36,1301.56,365.73,1281.17,374.53z"/>
				<path class="st7" d="M1198.51,327.64c-0.89,1.06-1.67,2.21-2.39,3.39c-7.21,11.78-50.06,85.01-6.28,94.54
					C1236.72,435.78,1227.62,292.78,1198.51,327.64z"/>
			</g>
			<g>
				<path class="st11" d="M171.8,306.76L171.8,306.76c-57.66,0-104.4,46.74-104.4,104.4v182.86c0,17.96,14.56,32.52,32.52,32.52
					h143.77c17.96,0,32.52-14.56,32.52-32.52V411.16C276.2,353.5,229.45,306.76,171.8,306.76z"/>
				<path class="st4" d="M276.2,411.16v182.86c0,17.96-14.56,32.52-32.52,32.52H99.92c-12.07,0-22.59-6.57-28.2-16.33
					c-2.75-4.77-4.32-10.3-4.32-16.19V411.16c0-2.14,0.07-4.27,0.2-6.38c0.32-5.34,1.04-10.57,2.14-15.66
					c2.78-12.95,7.96-25,15.06-35.67c18.69-28.14,50.68-46.69,87.01-46.69c26.99,0,51.58,10.23,70.1,27.04
					c9.59,8.7,17.57,19.15,23.4,30.86c0.62,1.26,1.22,2.52,1.8,3.81c4.84,10.78,7.9,22.52,8.81,34.86
					C276.1,405.91,276.2,408.52,276.2,411.16z"/>
				<path class="st12" d="M275.9,403.33c-0.91-12.34-3.97-24.09-8.81-34.86c-0.58-1.28-1.18-2.55-1.8-3.81
					c-5.83-11.71-13.8-22.16-23.4-30.86c-18.52-16.8-43.11-27.04-70.1-27.04c-8.94,0-17.61,1.13-25.89,3.24
					c16.72,4.27,31.82,12.56,44.2,23.79c9.59,8.7,17.57,19.15,23.4,30.86c0.62,1.26,1.22,2.52,1.8,3.81
					c4.84,10.78,7.9,22.52,8.81,34.86c0.2,2.58,0.3,5.2,0.3,7.83v182.86c0,17.96-14.56,32.52-32.52,32.52h51.79
					c17.96,0,32.52-14.56,32.52-32.52V411.16C276.2,408.52,276.1,405.91,275.9,403.33z"/>
				<path class="st1" d="M171.8,725.18L171.8,725.18c-14.07,0-25.48-11.41-25.48-25.48v-73.98h50.97v73.98
					C197.28,713.77,185.87,725.18,171.8,725.18z"/>
				<path class="st2" d="M183.3,625.71v73.98c0,11.65-7.82,21.47-18.5,24.51c2.22,0.63,4.56,0.98,6.99,0.98h0
					c14.07,0,25.48-11.41,25.48-25.48v-73.98H183.3z"/>
				<g>
					<path class="st3" d="M241.89,333.8l-157.1,19.66c18.69-28.14,50.68-46.69,87.01-46.69
						C198.78,306.76,223.37,316.99,241.89,333.8z"/>
					<path class="st3" d="M275.9,403.33L67.4,429.4v-18.24c0-2.14,0.07-4.27,0.2-6.38c0.32-5.34,1.04-10.57,2.14-15.66l195.56-24.46
						c0.62,1.26,1.22,2.52,1.8,3.81C271.93,379.24,274.99,390.99,275.9,403.33z"/>
					<polygon class="st3" points="276.2,437.07 276.2,477.06 67.4,503.18 67.4,463.19 					"/>
					<polygon class="st3" points="276.2,510.85 276.2,550.84 67.4,576.96 67.4,536.97 					"/>
					<path class="st3" d="M276.2,584.63v9.39c0,17.96-14.56,32.52-32.52,32.52H99.92c-12.07,0-22.59-6.57-28.2-16.33L276.2,584.63z"
						/>
				</g>
				<g>
					<path class="st13" d="M241.89,333.8l-45.94,5.75c-1.87-1.99-3.82-3.9-5.85-5.75c-12.39-11.24-27.49-19.53-44.2-23.8
						c0.68-0.18,1.38-0.35,2.07-0.51c0.86-0.2,1.75-0.39,2.63-0.58c0.54-0.12,1.09-0.22,1.64-0.32c0.75-0.15,1.5-0.28,2.25-0.4
						c0.37-0.07,0.75-0.12,1.13-0.18c0.51-0.08,1.03-0.16,1.55-0.23c0.41-0.06,0.82-0.12,1.23-0.16c0.56-0.07,1.13-0.14,1.69-0.21
						c0.39-0.04,0.79-0.09,1.18-0.12c0.56-0.06,1.11-0.11,1.67-0.15c0.53-0.05,1.05-0.09,1.58-0.12c0.24-0.02,0.48-0.04,0.73-0.05
						c2.16-0.14,4.35-0.21,6.54-0.21C198.78,306.76,223.37,316.99,241.89,333.8z"/>
					<path class="st13" d="M275.9,403.33l-51.5,6.44c-0.03-2.17-0.12-4.31-0.29-6.44c-0.85-11.46-3.54-22.41-7.81-32.54l48.99-6.12
						c0.62,1.26,1.22,2.52,1.8,3.81C271.93,379.24,274.99,390.99,275.9,403.33z"/>
					<polygon class="st13" points="224.41,443.55 276.2,437.07 276.2,477.06 224.41,483.54 					"/>
					<polygon class="st13" points="276.2,510.85 276.2,550.84 224.41,557.32 224.41,517.33 					"/>
					<path class="st13" d="M276.2,584.63v9.39c0,17.96-14.56,32.52-32.52,32.52h-51.79c17.96,0,32.52-14.56,32.52-32.52v-2.91
						L276.2,584.63z"/>
				</g>
				<path class="st7" d="M109.93,364.53L109.93,364.53c-14.38,0-26.15,11.77-26.15,26.15V574.9c0,14.38,11.77,26.15,26.15,26.15h0
					c14.38,0,26.15-11.77,26.15-26.15V390.68C136.08,376.3,124.31,364.53,109.93,364.53z"/>
			</g>
			<ellipse class="st14" cx="171.8" cy="770.36" rx="56.21" ry="9.12"/>
			<g>
				<g>
					<g>
						<path class="st1" d="M541.2,503.93l-72.95,198.11c-5.3,14.39-25.65,14.39-30.95,0l-72.95-198.11
							c-6.27-17.03,6.33-35.09,24.47-35.09h127.9C534.87,468.84,547.47,486.91,541.2,503.93z"/>
						<path class="st2" d="M516.73,468.84h-35.17c18.14,0,30.74,18.07,24.47,35.09l-70.84,192.4l2.11,5.72
							c5.3,14.39,25.65,14.39,30.95,0l72.95-198.11C547.47,486.91,534.87,468.84,516.73,468.84z"/>
						<path class="st2" d="M541.2,503.93c0.6-1.64,1.03-3.29,1.29-4.93l-27.07-27.07h-12.98l3.66,3.66l-21.73,21.73l-21.73-21.73
							l3.66-3.66H446l3.66,3.66l-21.73,21.73l-21.73-21.73l3.66-3.66h-12.98l-30.63,30.63c0.27,1.49,0.66,2.98,1.21,4.46l1.97,5.35
							l2.06-2.06l21.73,21.73l-12.1,12.1l3.49,9.49l15.1-15.1l21.73,21.73l-21.73,21.73l-7.36-7.36l7.57,20.55l21.53,21.53
							l-9.94,9.94l3.49,9.49l12.94-12.94l21.73,21.73l-21.73,21.73l-2.69-2.69l7.57,20.55l16.85,16.85l-7.41,7.41
							c0.18,0.26,0.36,0.51,0.55,0.76c2.49,1.88,5.44,2.95,8.46,3.21l4.9-4.9l3.51,3.51c2.75-1.23,5.19-3.24,6.96-6.03l-3.97-3.97
							l9.27-9.27l10.2-27.7l-19.47-19.47l21.73-21.73l9.44,9.44l3.49-9.49l-6.44-6.44l13.95-13.95l7.68-20.87l-21.63-21.63
							l21.73-21.73l11.6,11.6l3.49-9.49l-8.6-8.6l18.62-18.62L541.2,503.93z M456.15,482.09l21.73,21.73l-21.73,21.73l-21.73-21.73
							L456.15,482.09z M477.88,560.26l-21.73,21.73l-21.73-21.73l21.73-21.73L477.88,560.26z M377.97,503.82l21.73-21.73
							l21.73,21.73l-21.73,21.73L377.97,503.82z M406.19,532.04l21.73-21.73l21.73,21.73l-21.73,21.73L406.19,532.04z
							 M427.92,610.22l-21.73-21.73l21.73-21.73l21.73,21.73L427.92,610.22z M477.88,673.15l-21.73,21.73l-21.73-21.73l21.73-21.73
							L477.88,673.15z M456.15,638.44l-21.73-21.73l21.73-21.73l21.73,21.73L456.15,638.44z M506.1,588.49l-21.73,21.73
							l-21.73-21.73l21.73-21.73L506.1,588.49z M484.37,553.77l-21.73-21.73l21.73-21.73l21.73,21.73L484.37,553.77z M512.59,525.55
							l-21.73-21.73l21.73-21.73l21.73,21.73L512.59,525.55z"/>
						<g>
							<path class="st9" d="M364.35,503.93l1.97,5.35l2.06-2.06l21.73,21.73l-12.1,12.1l3.49,9.49l15.1-15.1l21.73,21.73
								L396.6,578.9l-7.36-7.36l7.57,20.55l21.53,21.53l-9.94,9.94l3.49,9.49l12.94-12.94l21.73,21.73l-21.73,21.73l-2.69-2.69
								l7.57,20.55l16.85,16.85l-7.41,7.41c1.84,2.74,4.34,4.68,7.14,5.85l6.77-6.77l6.61,6.61c2.75-1.23,5.19-3.24,6.96-6.03
								l-7.07-7.07l15.98-15.98l7.57-20.55l-1.82,1.82l-21.73-21.73l21.73-21.73l12.54,12.54l3.49-9.49l-9.54-9.54l20.66-20.66
								l7.57-20.55l-6.49,6.49l-21.73-21.73l21.73-21.73l14.69,14.69l3.49-9.49l-11.7-11.7l21.73-21.73l1.66,1.66l1.82-4.94
								c0.6-1.64,1.03-3.29,1.29-4.93l-30.17-30.17h-12.98l3.66,3.66l-21.73,21.73l-21.73-21.73l3.66-3.66h-20.3l3.66,3.66
								l-21.73,21.73l-21.73-21.73l3.66-3.66h-12.98l-30.63,30.63C363.41,500.96,363.8,502.45,364.35,503.93z M424.83,607.12
								l-21.73-21.73l21.73-21.73l21.73,21.73L424.83,607.12z M431.32,557.17l21.73-21.73l21.73,21.73l-21.73,21.73L431.32,557.17z
								 M474.78,670.06l-21.73,21.73l-21.73-21.73l21.73-21.73L474.78,670.06z M453.05,635.34l-21.73-21.73l21.73-21.73l21.73,21.73
								L453.05,635.34z M503,585.39l-21.73,21.73l-21.73-21.73l21.73-21.73L503,585.39z M509.49,478.99l21.73,21.73l-21.73,21.73
								l-21.73-21.73L509.49,478.99z M503,528.94l-21.73,21.73l-21.73-21.73l21.73-21.73L503,528.94z M453.05,478.99l21.73,21.73
								l-21.73,21.73l-21.73-21.73L453.05,478.99z M446.56,528.94l-21.73,21.73l-21.73-21.73l21.73-21.73L446.56,528.94z
								 M396.6,478.99l21.73,21.73l-21.73,21.73l-21.73-21.73L396.6,478.99z"/>
						</g>
					</g>
					<path class="st4" d="M547.97,421.28c1.85-7.42,2.83-15.18,2.83-23.17c0-52.79-42.79-95.58-95.58-95.58
						s-95.58,42.79-95.58,95.58c0,7.21,0.8,14.23,2.32,20.98c-19.31,8.31-32.83,27.5-32.83,49.85c0,29.96,24.29,54.26,54.26,54.26
						c22.08,0,41.07-13.2,49.54-32.13c7.16,1.71,14.62,2.62,22.3,2.62c6.05,0,11.98-0.57,17.72-1.65
						c8.68,18.41,27.39,31.16,49.1,31.16c29.96,0,54.26-24.29,54.26-54.26C576.29,448.38,564.84,430.48,547.97,421.28z"/>
					<path class="st6" d="M547.97,421.28c1.85-7.42,2.83-15.18,2.83-23.17c0-52.13-41.74-94.51-93.62-95.55
						c31.51,14.13,53.46,45.78,53.46,82.55c0,49.94-40.49,90.43-90.43,90.43c-32.56,0-61.1-17.21-77.02-43.03
						c-8.74,9.63-14.07,22.41-14.07,36.45c0,29.96,24.29,54.26,54.26,54.26c22.08,0,41.07-13.2,49.54-32.13
						c7.16,1.71,14.62,2.62,22.3,2.62c6.05,0,11.98-0.57,17.72-1.65c8.68,18.41,27.39,31.16,49.1,31.16
						c29.96,0,54.26-24.29,54.26-54.26C576.29,448.38,564.84,430.48,547.97,421.28z"/>
					<ellipse class="st7" cx="434.96" cy="377.07" rx="57.6" ry="54.93"/>
					<ellipse class="st7" cx="415.99" cy="362.54" rx="21.43" ry="22.94"/>
				</g>
			</g>
			<g>
				<g>
					<path class="st1" d="M730.77,725.18L730.77,725.18c-13.92,0-25.2-11.28-25.2-25.2v-73.16h50.4v73.16
						C755.97,713.9,744.69,725.18,730.77,725.18z"/>
					<path class="st2" d="M742.15,626.82v73.16c0,11.52-7.73,21.23-18.29,24.23c2.2,0.63,4.51,0.97,6.91,0.97h0
						c13.92,0,25.2-11.28,25.2-25.2v-73.16H742.15z"/>
					<path class="st15" d="M828.14,445.78v-50.74c0-53.28-43.19-96.46-96.46-96.46h0c-53.28,0-96.46,43.19-96.46,96.46v50.74H828.14
						z"/>
					<path class="st5" d="M635.21,445.63v0.15h192.93v-50.74c0-53.28-43.19-96.46-96.46-96.46h0c-4.99,0-9.89,0.38-14.67,1.11
						c43.81,9.11,76.74,47.93,76.74,94.44v51.51H635.21z"/>
					<path class="st8" d="M811.38,411.42c-6.59,0-12.92,2.52-17.7,7.06c-4.33,4.1-9.6,8.92-12.92,11.29
						c-6.42,4.59-19.27-18.35-31.19-18.35c-11.93,0-22.94,28.44-35.78,32.11c-9.21,2.63-26.71-22.7-38.46-40.08
						c-4.81-7.11-12.71-11.49-21.29-11.8l-9.59-0.35c-11.74-0.43-21.49,8.97-21.49,20.72v177.06c0,20.96,16.99,37.95,37.95,37.95
						h141.54c20.96,0,37.95-16.99,37.95-37.95V432.15c0-11.45-9.28-20.73-20.73-20.73H811.38z"/>
					<path class="st8" d="M679.05,408.9c-3.29-4.07-5.93-7.7-7.48-9.9c1.39,1.33,2.66,2.82,3.76,4.45
						C676.51,405.2,677.75,407.03,679.05,408.9z"/>
					<g>
						<path class="st10" d="M819.66,411.42l-8.29,0c-6.03,0-11.84,2.12-16.45,5.95c3.82,3.76,6.2,8.99,6.2,14.78v156.92
							c0,20.96-16.99,37.95-37.95,37.95h39.27c20.96,0,37.95-16.99,37.95-37.95V432.15C840.4,420.7,831.11,411.42,819.66,411.42z"/>
					</g>
					<path class="st5" d="M649.35,396.76c0,0,0.55,0.83,1.55,2.24c-0.54-0.51-1.1-1-1.69-1.47L649.35,396.76z"/>
					<path class="st5" d="M780.76,429.76c-6.42,4.59-19.27-18.35-31.19-18.35c-11.93,0-22.94,28.44-35.78,32.11
						c-8.28,2.37-23.27-17.88-34.74-34.62c10.64,13.22,28.14,31.26,37.84,21.35c14.61-14.92,20.4-34.4,35.01-28.62
						C766.51,407.42,780.76,429.76,780.76,429.76z"/>
					<path class="st7" d="M658.56,432.6L658.56,432.6c-9.49,0-17.25,7.76-17.25,17.25v121.49c0,9.49,7.76,17.25,17.25,17.25l0,0
						c9.49,0,17.25-7.76,17.25-17.25V449.85C675.8,440.36,668.04,432.6,658.56,432.6z"/>
				</g>
			</g>
			<ellipse class="st14" cx="459.34" cy="770.36" rx="56.21" ry="9.12"/>
			<ellipse class="st14" cx="727.14" cy="770.36" rx="56.21" ry="9.12"/>
			<ellipse class="st14" cx="993.93" cy="770.36" rx="56.21" ry="9.12"/>
			<ellipse class="st14" cx="1253.68" cy="770.36" rx="56.21" ry="9.12"/>
		</g>
		<path class="st8" d="M975.4,148.87c-1.6-3.48-1.62-7.49-0.05-10.99l14.27-31.83c1.92-4.29-1.21-9.13-5.91-9.13h-47.99H463.94
			h-47.89c-4.72,0-7.86,4.89-5.89,9.18l14.1,30.73c1.6,3.48,1.62,7.49,0.05,10.99l-14.27,31.83c-1.92,4.29,1.21,9.13,5.91,9.13
			h47.99h471.78h47.89c4.72,0,7.86-4.89,5.89-9.18L975.4,148.87z"/>
	</g>
</g>
<g id="TEXT">
	<g>
		<text transform="matrix(1 0 0 1 458.959 164.3765)"><tspan x="0" y="0" class="st0 st16 st17 st18">SUMMER</tspan><tspan x="267.09" y="0" class="st4 st16 st17 st18"> </tspan><tspan x="292.77" y="0" class="st1 st16 st17 st18">VIBES</tspan></text>
	</g>
</g>
</svg>
